<svg width="80" height="29" viewBox="0 0 80 29" fill="none" xmlns="http://www.w3.org/2000/svg">
<g clip-path="url(#clip0_2896_2881)">
<path fill-rule="evenodd" clip-rule="evenodd" d="M26.7126 0.584961H33.1141L16.9499 28.4399L0.67923 0.584961H7.2264L16.9499 17.3542L26.7126 0.584961ZM20.8208 0.588145H27.1698L16.9401 17.9466L6.79244 0.588145H13.0423L16.9401 7.27089L20.8208 0.588145Z" fill="#0B0C0D"/>
<path fill-rule="evenodd" clip-rule="evenodd" d="M37.0008 6.07763C37.0008 5.87214 37.1149 5.7009 37.343 5.56389C37.5712 5.4269 37.8097 5.3584 38.0586 5.3584C38.4042 5.3584 38.6185 5.48854 38.7015 5.74884L42.3518 17.955L45.9813 5.74884C46.0781 5.48856 46.2855 5.3584 46.6035 5.3584C46.8662 5.3584 47.1116 5.43374 47.3398 5.58444C47.5679 5.73513 47.682 5.90637 47.682 6.09817C47.682 6.11187 47.6786 6.13242 47.6716 6.15982C47.6646 6.18722 47.6612 6.21462 47.6612 6.24201L43.451 19.9072C43.2989 20.3044 42.9325 20.5031 42.3518 20.5031C41.7711 20.5031 41.4185 20.3044 41.294 19.9072L37.0425 6.24202C37.0148 6.15982 37.0008 6.10502 37.0008 6.07763ZM47.8454 16.5986V11.256C47.8454 11.0916 47.9318 10.9477 48.1046 10.8244C48.2775 10.7012 48.4814 10.6395 48.7165 10.6395C48.9377 10.6395 49.1347 10.7046 49.3076 10.8347C49.4804 10.9649 49.5668 11.1053 49.5668 11.256V16.5986C49.5668 17.2151 49.8019 17.7699 50.272 18.2631C50.7421 18.7562 51.3021 19.0028 51.9519 19.0028C52.588 19.0028 53.141 18.7597 53.6111 18.2733C54.0812 17.787 54.3163 17.2288 54.3163 16.5986V11.2351C54.3163 11.0844 54.4027 10.9474 54.5756 10.8241C54.7484 10.7008 54.9523 10.6392 55.1874 10.6392C55.4363 10.6392 55.6402 10.6974 55.7992 10.8139C55.9582 10.9303 56.0377 11.0707 56.0377 11.2351V16.5986C56.0377 17.6535 55.6333 18.5747 54.8245 19.3624C54.0156 20.1501 53.0581 20.544 51.952 20.544C50.832 20.544 49.8676 20.1501 49.0587 19.3624C48.2499 18.5747 47.8454 17.6535 47.8454 16.5986ZM57.4453 16.5575V14.3998C57.4453 13.345 57.8497 12.434 58.6585 11.6668C59.4674 10.8997 60.4387 10.5161 61.5725 10.5161C62.651 10.5161 63.5843 10.8757 64.3724 11.5949C65.1606 12.3141 65.5546 13.2149 65.5546 14.2971C65.5546 14.6944 65.5062 15.0129 65.4094 15.2527C65.3127 15.4924 65.164 15.6636 64.9635 15.7664C64.7631 15.8691 64.5764 15.9342 64.4036 15.9616C64.2307 15.989 63.9991 16.0027 63.7087 16.0027H59.1666V16.6192C59.1666 17.3726 59.4397 17.9754 59.9858 18.4275C60.532 18.8796 61.2406 19.1056 62.1117 19.1056C62.568 19.1056 62.9655 19.0371 63.3042 18.9001C63.643 18.7631 63.9161 18.6296 64.1235 18.4995C64.3309 18.3693 64.4968 18.3042 64.6212 18.3042C64.8148 18.3042 64.9807 18.3899 65.119 18.5611C65.2573 18.7323 65.3264 18.907 65.3264 19.0851C65.3264 19.4002 65.0118 19.7221 64.3827 20.0509C63.7536 20.3797 62.9758 20.544 62.0495 20.544C60.6945 20.544 59.5883 20.1776 58.7311 19.4447C57.8738 18.7118 57.4453 17.7493 57.4453 16.5575ZM59.1667 14.8519H63.0036C63.3631 14.8519 63.605 14.8074 63.7295 14.7184C63.854 14.6293 63.9162 14.4547 63.9162 14.1944C63.9162 13.5779 63.688 13.0368 63.2317 12.571C62.7755 12.1052 62.2155 11.8723 61.5518 11.8723C60.9019 11.8723 60.342 12.0881 59.8718 12.5196C59.4017 12.9511 59.1667 13.482 59.1667 14.1121L59.1667 14.8519ZM66.4232 19.4343C66.4232 19.1329 66.5269 18.8761 66.7343 18.6637C66.9417 18.4514 67.1975 18.3452 67.5017 18.3452C67.792 18.3452 68.0409 18.4514 68.2483 18.6637C68.4557 18.8761 68.5594 19.1329 68.5594 19.4343C68.5594 19.722 68.4557 19.972 68.2483 20.1843C68.0409 20.3967 67.792 20.5029 67.5017 20.5029C67.1975 20.5029 66.9417 20.3967 66.7343 20.1843C66.5269 19.972 66.4232 19.722 66.4232 19.4343ZM67.9554 24.3456C67.9554 24.1264 68.0245 23.9449 68.1628 23.801C68.301 23.6572 68.4669 23.5853 68.6605 23.5853C69.1998 23.5853 69.5523 23.3866 69.7183 22.9894C69.8842 22.5921 69.9672 21.9962 69.9672 21.2016V11.2353C69.9672 11.0572 70.0467 10.9133 70.2057 10.8037C70.3647 10.6941 70.5686 10.6394 70.8175 10.6394C71.0664 10.6394 71.2738 10.6942 71.4397 10.8037C71.6056 10.9133 71.6886 11.0572 71.6886 11.2353V21.2016C71.6886 22.3935 71.4535 23.3387 70.9834 24.0374C70.5133 24.736 69.8012 25.0854 68.8472 25.0854C68.2527 25.0854 67.9554 24.8388 67.9554 24.3456ZM69.739 6.9816C69.739 6.72132 69.8427 6.49529 70.0501 6.30349C70.2575 6.11169 70.5133 6.0158 70.8175 6.0158C71.1078 6.0158 71.3567 6.1117 71.5641 6.30349C71.7715 6.49528 71.8752 6.72132 71.8752 6.9816C71.8752 7.24189 71.7715 7.47137 71.5641 7.67C71.3567 7.86864 71.1078 7.96796 70.8175 7.96796C70.5271 7.96796 70.2748 7.86865 70.0605 7.67C69.8461 7.47136 69.739 7.24189 69.739 6.9816ZM72.9718 18.9821C72.9718 18.804 73.0306 18.6293 73.1481 18.4581C73.2657 18.2869 73.4074 18.2013 73.5733 18.2013C73.6839 18.2013 73.8429 18.2835 74.0503 18.4478C74.2577 18.6122 74.555 18.7732 74.9421 18.9307C75.3293 19.0883 75.7855 19.1671 76.3109 19.1671C77.0023 19.1671 77.5035 19.0438 77.8146 18.7972C78.1257 18.5506 78.2813 18.2423 78.2813 17.8725C78.2813 17.4204 78.1084 17.0608 77.7627 16.7936C77.4171 16.5265 76.9954 16.3244 76.4976 16.1874C75.9998 16.0504 75.5021 15.8998 75.0043 15.7353C74.5065 15.571 74.0848 15.2969 73.7391 14.9134C73.3935 14.5298 73.2206 14.0229 73.2206 13.3928C73.2206 12.6119 73.5006 11.9372 74.0606 11.3687C74.6206 10.8002 75.4744 10.5159 76.622 10.5159C77.3548 10.5159 78.0254 10.6289 78.6338 10.855C79.2422 11.081 79.5463 11.3379 79.5463 11.6255C79.5463 11.7899 79.4807 11.9749 79.3493 12.1804C79.2179 12.3859 79.0555 12.4886 78.8619 12.4886C78.8066 12.4886 78.5404 12.3893 78.0634 12.1906C77.5864 11.992 77.1128 11.8927 76.6427 11.8927C76.0067 11.8927 75.5331 12.0399 75.222 12.3345C74.9109 12.629 74.7554 12.9612 74.7554 13.3311C74.7554 13.7147 74.9282 14.0161 75.2739 14.2353C75.6196 14.4544 76.0447 14.6257 76.5494 14.749C77.0541 14.8723 77.5553 15.023 78.053 15.2011C78.5508 15.3792 78.9725 15.684 79.3182 16.1155C79.6639 16.547 79.8367 17.1053 79.8367 17.7903C79.8367 18.6396 79.5325 19.3109 78.9242 19.8041C78.3158 20.2972 77.4655 20.5438 76.3731 20.5438C75.4329 20.5438 74.631 20.376 73.9673 20.0404C73.3036 19.7047 72.9718 19.352 72.9718 18.9821Z" fill="#0B0C0D"/>
</g>
<defs>
<clipPath id="clip0_2896_2881">
<rect width="80" height="28.4444" fill="white" transform="translate(0 0.115234)"/>
</clipPath>
</defs>
</svg>
